HIERARCHY
ROOT Hips
{
    OFFSET   0.000000   0.000000   0.000000
    CHANNELS 6 Xposition Yposition Zposition Zrotation Xrotation Yrotation
    JOINT Chest
    {
        OFFSET   0.000000   8.007240   0.000000
        CHANNELS 3 Zrotation Xrotation Yrotation
        JOINT Chest2
        {
            OFFSET   0.000000  22.077100   0.000000
            CHANNELS 3 Zrotation Xrotation Yrotation
            JOINT Neck
            {
                OFFSET   0.000000  23.254800   0.000000
                CHANNELS 3 Zrotation Xrotation Yrotation
                JOINT Head
                {
                    OFFSET   0.000000  14.370000   1.956600
                    CHANNELS 3 Zrotation Xrotation Yrotation
                    End Site
                    {
                        OFFSET   0.000000  19.566000   0.000000
                    }
                }
            }
            JOINT LeftCollar
            {
                OFFSET   3.911900  19.017000  -0.467064
                CHANNELS 3 Zrotation Xrotation Yrotation
                JOINT LeftShoulder
                {
                    OFFSET  10.383700   0.000000   0.000000
                    CHANNELS 3 Zrotation Xrotation Yrotation
                    JOINT LeftElbow
                    {
                        OFFSET  26.662100   0.001476   0.000517
                        CHANNELS 3 Zrotation Xrotation Yrotation
                        JOINT LeftWrist
                        {
                            OFFSET  28.869000  -0.000025  -0.000106
                            CHANNELS 3 Zrotation Xrotation Yrotation
                            JOINT LeftFinger0
                            {
                                OFFSET   2.044660  -2.323460   3.252850
                                CHANNELS 3 Zrotation Xrotation Yrotation
                                JOINT LeftFinger01
                                {
                                    OFFSET   3.088130   0.000000   0.000000
                                    CHANNELS 3 Zrotation Xrotation Yrotation
                                    JOINT LeftFinger02
                                    {
                                        OFFSET   2.639460   0.000000   0.000000
                                        CHANNELS 3 Zrotation Xrotation Yrotation
                                        End Site
                                        {
                                            OFFSET   2.582190   0.000000   0.000000
                                        }
                                    }
                                }
                            }
                            JOINT LeftFinger1
                            {
                                OFFSET   8.364480   0.000000   3.252850
                                CHANNELS 3 Zrotation Xrotation Yrotation
                                JOINT LeftFinger11
                                {
                                    OFFSET   4.646930   0.000000   0.000000
                                    CHANNELS 3 Zrotation Xrotation Yrotation
                                    JOINT LeftFinger12
                                    {
                                        OFFSET   2.323460   0.000000   0.000000
                                        CHANNELS 3 Zrotation Xrotation Yrotation
                                        End Site
                                        {
                                            OFFSET   2.273050   0.000000   0.000000
                                        }
                                    }
                                }
                            }
                            JOINT LeftFinger2
                            {
                                OFFSET   8.364490   0.000015   1.078090
                                CHANNELS 3 Zrotation Xrotation Yrotation
                                JOINT LeftFinger21
                                {
                                    OFFSET   5.111620   0.000000   0.000000
                                    CHANNELS 3 Zrotation Xrotation Yrotation
                                    JOINT LeftFinger22
                                    {
                                        OFFSET   2.788160   0.000016   0.000000
                                        CHANNELS 3 Zrotation Xrotation Yrotation
                                        End Site
                                        {
                                            OFFSET   2.727660   0.000000   0.000000
                                        }
                                    }
                                }
                            }
                            JOINT LeftFinger3
                            {
                                OFFSET   7.899780   0.000017  -1.078090
                                CHANNELS 3 Zrotation Xrotation Yrotation
                                JOINT LeftFinger31
                                {
                                    OFFSET   4.646930   0.000000   0.000000
                                    CHANNELS 3 Zrotation Xrotation Yrotation
                                    JOINT LeftFinger32
                                    {
                                        OFFSET   2.323470   0.000000   0.000000
                                        CHANNELS 3 Zrotation Xrotation Yrotation
                                        End Site
                                        {
                                            OFFSET   2.273050   0.000000   0.000000
                                        }
                                    }
                                }
                            }
                            JOINT LeftFinger4
                            {
                                OFFSET   7.435090   0.000000  -3.252850
                                CHANNELS 3 Zrotation Xrotation Yrotation
                                JOINT LeftFinger41
                                {
                                    OFFSET   3.717550   0.000000   0.000000
                                    CHANNELS 3 Zrotation Xrotation Yrotation
                                    JOINT LeftFinger42
                                    {
                                        OFFSET   1.858770   0.000000   0.000000
                                        CHANNELS 3 Zrotation Xrotation Yrotation
                                        End Site
                                        {
                                            OFFSET   1.818440   0.000000   0.000000
                                        }
                                    }
                                }
                            }
                        }
                    }
                }
            }
            JOINT RightCollar
            {
                OFFSET  -3.911900  19.017000  -0.467063
                CHANNELS 3 Zrotation Xrotation Yrotation
                JOINT RightShoulder
                {
                    OFFSET -10.383700   0.000019   0.000000
                    CHANNELS 3 Zrotation Xrotation Yrotation
                    JOINT RightElbow
                    {
                        OFFSET -26.662100   0.001175   0.000102
                        CHANNELS 3 Zrotation Xrotation Yrotation
                        JOINT RightWrist
                        {
                            OFFSET -28.869000   0.000016  -0.000079
                            CHANNELS 3 Zrotation Xrotation Yrotation
                            JOINT RightFinger0
                            {
                                OFFSET  -2.044660  -2.323490   3.252850
                                CHANNELS 3 Zrotation Xrotation Yrotation
                                JOINT RightFinger01
                                {
                                    OFFSET  -3.088140   0.000000   0.000000
                                    CHANNELS 3 Zrotation Xrotation Yrotation
                                    JOINT RightFinger02
                                    {
                                        OFFSET  -2.639460   0.000000   0.000000
                                        CHANNELS 3 Zrotation Xrotation Yrotation
                                        End Site
                                        {
                                            OFFSET  -2.582190   0.000000   0.000000
                                        }
                                    }
                                }
                            }
                            JOINT RightFinger1
                            {
                                OFFSET  -8.364480   0.000000   3.252850
                                CHANNELS 3 Zrotation Xrotation Yrotation
                                JOINT RightFinger11
                                {
                                    OFFSET  -4.646930   0.000000   0.000000
                                    CHANNELS 3 Zrotation Xrotation Yrotation
                                    JOINT RightFinger12
                                    {
                                        OFFSET  -2.323470   0.000000   0.000000
                                        CHANNELS 3 Zrotation Xrotation Yrotation
                                        End Site
                                        {
                                            OFFSET  -2.273050   0.000000   0.000000
                                        }
                                    }
                                }
                            }
                            JOINT RightFinger2
                            {
                                OFFSET  -8.364480   0.000000   1.078090
                                CHANNELS 3 Zrotation Xrotation Yrotation
                                JOINT RightFinger21
                                {
                                    OFFSET  -5.111620   0.000000   0.000000
                                    CHANNELS 3 Zrotation Xrotation Yrotation
                                    JOINT RightFinger22
                                    {
                                        OFFSET  -2.788160   0.000000   0.000000
                                        CHANNELS 3 Zrotation Xrotation Yrotation
                                        End Site
                                        {
                                            OFFSET  -2.727660   0.000000   0.000000
                                        }
                                    }
                                }
                            }
                            JOINT RightFinger3
                            {
                                OFFSET  -7.899780   0.000000  -1.078090
                                CHANNELS 3 Zrotation Xrotation Yrotation
                                JOINT RightFinger31
                                {
                                    OFFSET  -4.646930   0.000000   0.000000
                                    CHANNELS 3 Zrotation Xrotation Yrotation
                                    JOINT RightFinger32
                                    {
                                        OFFSET  -2.323470   0.000000   0.000000
                                        CHANNELS 3 Zrotation Xrotation Yrotation
                                        End Site
                                        {
                                            OFFSET  -2.273050   0.000000   0.000000
                                        }
                                    }
                                }
                            }
                            JOINT RightFinger4
                            {
                                OFFSET  -7.435090   0.000000  -3.252850
                                CHANNELS 3 Zrotation Xrotation Yrotation
                                JOINT RightFinger41
                                {
                                    OFFSET  -3.717550   0.000000   0.000000
                                    CHANNELS 3 Zrotation Xrotation Yrotation
                                    JOINT RightFinger42
                                    {
                                        OFFSET  -1.858770   0.000000   0.000000
                                        CHANNELS 3 Zrotation Xrotation Yrotation
                                        End Site
                                        {
                                            OFFSET  -1.818440   0.000000   0.000000
                                        }
                                    }
                                }
                            }
                        }
                    }
                }
            }
        }
    }
    JOINT LeftHip
    {
        OFFSET   9.783040   0.000000   0.000000
        CHANNELS 3 Zrotation Xrotation Yrotation
        JOINT LeftKnee
        {
            OFFSET   0.000032 -41.789100  -0.002222
            CHANNELS 3 Zrotation Xrotation Yrotation
            JOINT LeftAnkle
            {
                OFFSET   0.000087 -41.133200  -0.000135
                CHANNELS 3 Zrotation Xrotation Yrotation
                JOINT LeftToe
                {
                    OFFSET   0.000000  -6.358960  14.674500
                    CHANNELS 3 Zrotation Xrotation Yrotation
                    End Site
                    {
                        OFFSET   0.000000   0.000000   3.913200
                    }
                }
            }
        }
    }
    JOINT RightHip
    {
        OFFSET  -9.783040   0.000000   0.000000
        CHANNELS 3 Zrotation Xrotation Yrotation
        JOINT RightKnee
        {
            OFFSET   0.000047 -41.789100  -0.000896
            CHANNELS 3 Zrotation Xrotation Yrotation
            JOINT RightAnkle
            {
                OFFSET  -0.000117 -41.133300  -0.000248
                CHANNELS 3 Zrotation Xrotation Yrotation
                JOINT RightToe
                {
                    OFFSET   0.000000  -6.358970  14.674500
                    CHANNELS 3 Zrotation Xrotation Yrotation
                    End Site
                    {
                        OFFSET   0.000000   0.000000   3.913200
                    }
                }
            }
        }
    }
}
MOTION
Frames: 6
Frame Time:   0.016667
 -0.803743  89.550400  -6.022450  -2.969810 -14.680600   2.274470   1.791650   9.672740  -5.054720   4.552540  19.139200 -10.647200   5.840540   0.305024  -0.031741   9.595910   0.598945  13.938700  -6.217110  -5.838580  -2.656420 -49.447900  29.813800 -49.714700   7.804900 -14.085600 -112.335000   2.915970 -57.798100 -16.103800  36.967700  26.450600 -60.652700 -29.129800  -0.000713   0.000152  -9.564900   0.002317   0.001405 -14.037200   3.547810 -13.909000 -11.839000   0.003668  -0.002242  -8.287300   0.003892   0.000790 -36.372100  -3.526660   4.779770 -54.075800  -0.004549  -0.001303 -36.155600  -0.001795  -0.002426 -35.698400  -5.280100   7.298050 -53.968200  -0.003348   0.010722 -35.959900  -0.002043   0.002248 -35.724300 -12.741300  17.050400 -56.467400   0.013888  -0.000659 -37.607300  -0.001737   0.002761  13.464400  -5.063040   8.200080  66.214300  12.827500  -4.977230  -1.625990  -4.108830  15.787800 -12.857900  -6.137350   5.494420 -46.229700  37.395400  77.911200  19.068400   0.000271   0.000000   4.534230  -0.001448  -0.005552  25.780800   6.828110  13.828400  21.769800  -0.021754  -0.037066  15.238900  -0.030264  -0.011080  26.817400   4.424100   8.676040  27.629500   0.007688  -0.007893  18.401300   0.001176  -0.007464  23.881800   3.040060   6.830440  24.063200  -0.031149  -0.055278  16.026100  -0.048008  -0.012715  27.347500   1.649050   3.184750  41.090100  -0.051878  -0.053091  27.366000  -0.051432   0.011549   5.798870  14.156100  -0.299964   1.033400   1.403310  12.694300  -2.753700  -1.022310  -1.758700   0.000000   0.000000   0.000000   4.963010  10.362600  -0.260885  -1.910400   7.787760 -23.459400   3.661140  -5.569260   1.060650  -0.000000   0.000000   0.000000
 -0.812719  89.545100  -6.012810  -3.016350 -14.708700   2.126530   1.813910   9.686230  -5.088110   4.605320  19.162300 -10.720400   5.795510   0.313027  -0.031062   9.521710   0.614952  14.209000  -6.249330  -5.929600  -2.780680 -49.759300  29.343500 -49.410500   7.813740 -14.169800 -111.532000   8.790200 -59.853900 -10.689200  36.994500  26.172400 -59.795800 -29.120300  -0.000817   0.000152  -9.560180   0.002105   0.001903 -13.329400   3.355320 -13.877600 -11.239800   0.003647  -0.002017  -7.867910   0.003855   0.000742 -36.283600  -3.525150   4.790630 -54.057300  -0.004541  -0.001272 -36.120400  -0.001694  -0.002300 -35.626800  -5.274990   7.310650 -53.954100  -0.003337   0.010854 -35.930200  -0.002039   0.002308 -35.188800 -12.731300  17.364500 -55.715400   0.012488  -0.000628 -37.106500  -0.001808   0.002789  13.490500  -5.073000   8.187970  66.138700  12.743500  -4.858570  -1.688770  -4.096490  15.808100 -12.850100  -6.155510   5.509720 -46.160700  37.332700  77.838600  19.032000   0.000318   0.000000   4.516050  -0.001521  -0.005655  25.778800   6.837210  13.847200  21.771000  -0.009252  -0.018308  15.239700  -0.014240  -0.005967  26.819900   4.430980   8.687740  27.643800   0.001046  -0.012823  18.410800  -0.010260  -0.013892  23.909700   3.049190   6.839720  24.092000  -0.014527  -0.057797  16.045300  -0.037618  -0.024203  27.393300   1.642970   3.166560  41.158000  -0.085319  -0.160140  27.411400  -0.112132  -0.024958   5.814760  14.203100  -0.272507   1.034420   1.433370  12.762000  -2.753750  -1.059410  -1.719780   0.000000   0.000000   0.000000   4.997300  10.390700  -0.220134  -1.920780   7.791590 -23.454100   3.650370  -5.530480   1.150780  -0.000000   0.000000   0.000000
 -0.823917  89.541400  -6.001920  -3.065640 -14.738200   1.965830   1.834450   9.699800  -5.118830   4.654160  19.185800 -10.787900   5.750570   0.327310  -0.030756   9.448270   0.643871  14.486800  -6.269870  -6.000010  -2.878790 -50.115000  28.861400 -49.102500   7.837400 -14.308700 -110.579000  15.131400 -61.826800  -4.570370  37.129200  26.013800 -59.013100 -29.094900  -0.000851   0.000154  -9.547500   0.002037   0.002150 -12.560900   3.149100 -13.846900 -10.589800   0.003626  -0.001769  -7.412890   0.003821   0.000692 -36.143500  -3.524360   4.812880 -54.031300  -0.004533  -0.001239 -36.066300  -0.001593  -0.002165 -35.555300  -5.269870   7.323240 -53.933400  -0.003331   0.010981 -35.900600  -0.002034   0.002370 -34.598700 -12.725400  17.720400 -54.889000   0.008898  -0.000538 -36.556100  -0.001883   0.002818  13.514200  -5.078170   8.168680  66.073800  12.642100  -4.742710  -1.762970  -4.069910  15.868400 -12.837300  -6.193000   5.531110 -46.114800  37.290800  77.790200  19.008400   0.000364  -0.000000   4.504190  -0.001594  -0.005752  25.781900   6.845870  13.862100  21.776000  -0.000797  -0.006197  15.243200  -0.003660  -0.002822  26.825000   4.434540   8.693340  27.668000  -0.003906  -0.016006  18.426900  -0.018115  -0.019815  23.944300   3.054440   6.842430  24.127000   0.006019  -0.060318  16.068600  -0.023691  -0.036580  27.454000   1.634510   3.142550  41.248000  -0.103757  -0.238999  27.471300  -0.154052  -0.061466   5.829960  14.253500  -0.244176   1.033640   1.468560  12.837600  -2.753730  -1.102690  -1.677630   0.000000   0.000000   0.000000   5.033460  10.419300  -0.196589  -1.934660   7.798600 -23.428100   3.641650  -5.495990   1.245420  -0.000000   0.000000   0.000000
 -0.837484  89.538800  -5.989910  -3.114140 -14.767800   1.798790   1.853190   9.715660  -5.147910   4.699370  19.214200 -10.851900   5.707640   0.343781  -0.030411   9.377130   0.677138  14.771400  -6.261060  -6.053550  -2.918280 -50.533600  28.358800 -48.784300   7.863640 -14.425800 -109.565000  22.568200 -63.695500   2.802070  37.347400  26.083600 -58.340800 -29.040700  -0.000921   0.000157  -9.520340   0.001908   0.001724 -12.014300   2.994360 -13.794000 -10.126300   0.003600  -0.001487  -7.088430   0.003786   0.000658 -36.025800  -3.527640   4.842090 -54.019300  -0.004544  -0.001209 -36.026000  -0.001486  -0.002021 -35.563900  -5.271900   7.322520 -53.921100  -0.003332   0.011102 -35.902300  -0.002034   0.002433 -34.007800 -12.719100  18.074900 -54.059200   0.001652  -0.000369 -36.003400  -0.001955   0.002844  13.537300  -5.084790   8.155050  66.019800  12.529400  -4.650900  -1.848790  -4.035360  15.974800 -12.820500  -6.286800   5.568130 -46.099900  37.303800  77.819500  19.003900   0.000400   0.000000   4.501950  -0.001650  -0.005814  25.794100   6.855040  13.870400  21.787200  -0.013416  -0.034496  15.251000  -0.022427  -0.013461  26.832900   4.434390   8.692280  27.700500  -0.004225  -0.016867  18.448500  -0.016027  -0.021297  23.984900   3.055290   6.839280  24.167400   0.010597  -0.070411  16.095500  -0.020691  -0.044881  27.542900   1.622360   3.107560  41.380200  -0.079133  -0.177731  27.559300  -0.120243  -0.044814   5.845980  14.307900  -0.230343   1.028840   1.506510  12.925800  -2.753950  -1.151700  -1.627320  -0.000000   0.000000  -0.000000   5.065560  10.443600  -0.201352  -1.952230   7.808080 -23.368100   3.634350  -5.468750   1.339230  -0.000000   0.000000  -0.000000
 -0.852935  89.537700  -5.975560  -3.164020 -14.799200   1.621180   1.871230   9.734850  -5.173850   4.743050  19.249500 -10.909700   5.667290   0.355263  -0.030112   9.311600   0.699548  15.061500  -6.226550  -6.077270  -2.924270 -51.027200  27.872500 -48.485700   7.905180 -14.572300 -108.481000  30.580200 -65.075200  10.808000  37.496300  26.189200 -57.998000 -29.002400  -0.000987   0.000160  -9.501160   0.001784   0.001009 -11.753200   2.918290 -13.759800  -9.904640   0.003574  -0.001189  -6.933240   0.003749   0.000628 -35.957300  -3.551550   4.870950 -54.015000  -0.004554  -0.001180 -36.004600  -0.001378  -0.001872 -35.625200  -5.279430   7.317400 -53.915400  -0.003333   0.011220 -35.914300  -0.002034   0.002493 -33.673200 -12.715800  18.276200 -53.589100  -0.003639   0.000173 -35.690400  -0.002023   0.002867  13.558100  -5.095820   8.143580  65.973700  12.430900  -4.577130  -1.937910  -3.994960  16.108100 -12.799800  -6.395250   5.612440 -46.074000  37.325600  77.869300  19.003300   0.000437  -0.000000   4.501630  -0.001703  -0.005873  25.810100   6.860200  13.873100  21.801100  -0.026368  -0.076099  15.260700  -0.049551  -0.032510  26.841300   4.433320   8.684820  27.736200  -0.004318  -0.017895  18.472300  -0.012819  -0.021709  24.025500   3.055540   6.818960  24.207700   0.011250  -0.077701  16.122300  -0.018975  -0.048686  27.631000   1.610290   3.072910  41.511300  -0.047831  -0.069011  27.646600  -0.064577  -0.009142   5.862710  14.368200  -0.221653   1.020130   1.545130  13.022600  -2.754180  -1.204370  -1.570220   0.000000   0.000000   0.000000   5.094300  10.470100  -0.209971  -1.970410   7.817980 -23.294700   3.630910  -5.451400   1.441200  -0.000000   0.000000   0.000000
 -0.869958  89.537500  -5.957330  -3.215890 -14.835100   1.429490   1.889770   9.760850  -5.195300   4.787810  19.298400 -10.959000   5.631180   0.356769  -0.029808   9.253590   0.701152  15.358400  -6.166460  -6.072060  -2.877020 -51.556100  27.431000 -48.241700   7.954280 -14.740500 -107.378000  38.312100 -65.723700  18.515900  37.495500  26.287100 -58.085300 -29.076800  -0.001043   0.000153  -9.538410   0.001661   0.000284 -12.011600   2.993060 -13.786800 -10.123400   0.003549  -0.000886  -7.086380   0.003709   0.000588 -36.426100  -3.658210   4.891690 -54.060900  -0.004551  -0.001158 -36.166400  -0.001275  -0.001728 -36.112700  -5.287880   7.192930 -54.002900  -0.003314   0.011338 -36.097100  -0.002032   0.002544 -33.849000 -12.708400  18.119800 -53.826000  -0.003879   0.001507 -35.848200  -0.002079   0.002884  13.574600  -5.119130   8.136410  65.930600  12.383000  -4.527020  -2.023980  -3.949790  16.258700 -12.775200  -6.491710   5.661090 -46.044700  37.348000  77.922300  19.037600   0.000483  -0.000052   4.518770  -0.001763  -0.005956  25.832000   6.852140  13.847000  21.818200  -0.026757  -0.101015  15.272900  -0.064206  -0.052260  26.851300   4.422620   8.658950  27.773600  -0.004465  -0.025493  18.497200  -0.010778  -0.022332  24.061800   3.041960   6.771710  24.242100   0.008160  -0.059102  16.145300  -0.011647  -0.037686  27.692900   1.601000   3.048670  41.603300  -0.040040   0.059530  27.707800  -0.010961   0.050288   5.881010  14.438900  -0.216775   1.009060   1.580200  13.127400  -2.756740  -1.258390  -1.504010   0.000000   0.000000   0.000000   5.120750  10.505800  -0.220671  -1.985660   7.825250 -23.225500   3.633560  -5.445600   1.562570  -0.000000   0.000000   0.000000
